<svg xmlns="http://www.w3.org/2000/svg" viewBox="0 0 512 512" width="512" height="512"><g id="Fill_out_line" data-name="Fill out line"><path d="M272,496c0-160,32-176,48-208s-24-32-64-32-80,0-64,32,48,48,48,208Z" style="fill:#03999c"/><path d="M440,472v24H72V472c0-137.41016,84.78-154.35986,127.7-170.79,2.84009-1.08984,5.5-2.17993,7.94019-3.29C217.68994,293.31006,224,288.1499,224,280c0-32-56-32-56-88V104c0-17.06006,2.49-32.09009,9.12988-44.39014C189.1499,37.30005,214.82007,24,264,24c96,0,104,32,104,120v40c0,39.67993-78.71,71.48-79.99,95.41992-.01.18994-.01.39014-.01.58008,0,8.1499,6.31006,13.31006,16.35986,17.91992,2.44019,1.11011,5.1001,2.2002,7.94019,3.29C355.22,317.64014,440,334.58984,440,472Z" style="fill:#f5a971"/><path d="M440,472v24H72V472c0-125.8999,71.16992-150.67993,116.10986-166.58008,2.73023-.97,5.36011-1.8999,7.87012-2.81982,1.27-.47022,2.51-.93018,3.72-1.39014,2.84009-1.08984,5.5-2.17993,7.94019-3.29a63.999,63.999,0,0,0,96.71972,0c2.44019,1.11011,5.1001,2.2002,7.94019,3.29,1.21.46,2.45.91992,3.72,1.39014,2.51.91992,5.13989,1.84985,7.87012,2.81982C368.83008,321.32007,440,346.1001,440,472Z" style="fill:#f57a08"/><path d="M240,496H72V472c0-137.41016,84.78-154.35986,127.7-170.79C216.49,327.51,240,358.85986,240,496Z" style="fill:#03999c"/><path d="M440,472v24H272c0-137.14014,23.51-168.49,40.30005-194.79C355.22,317.64014,440,334.58984,440,472Z" style="fill:#03999c"/><path d="M232,200h48c16,0,0,24-24,24S216,200,232,200Z" style="fill:#e37066"/><path d="M368,144v.03c-.32007-.02-.6499-.03-.97-.03a16.97809,16.97809,0,0,0-12,4.97L352,152a13.54882,13.54882,0,0,1-.51,3.78C348.04,167.87988,328,166.62012,328,152V80c0-12-8-24-40-24s-32,16-56,16c-21.02,0-35.67993-18.07007-54.87012-12.39014C189.1499,37.30005,214.82007,24,264,24,360,24,368,56,368,144Z" style="fill:#795033"/><path d="M346.78,190.89014,368,182.3999V184c0,39.67993-78.71,71.48-79.99,95.41992C288.49,247.80005,328.10986,231.75,346.78,190.89014Z" style="fill:#795033"/><path d="M384,160.97v3.54a16.96876,16.96876,0,0,1-10.66992,15.76l-26.55,10.62012L351.49,155.78,352,152l3.03-3.03a16.97,16.97,0,0,1,28.97,12Z" style="fill:#f5a971"/><path d="M317.94531,240.85742c-4.96069,3.90528-9.7334,7.6648-14.0581,11.32031,3.86963-4.78906,8.40161-9.56567,13.16748-14.585,11.2539-11.85156,23.9707-25.24609,32.67969-43.57617l13.87451-5.55078C360.44678,207.384,337.96436,225.0957,317.94531,240.85742ZM288,52c-18.2207,0-26.86621,4.99219-34.49512,9.39551C247.36719,64.93945,242.06641,68,232,68c-8.56055,0-16.28906-3.44238-23.76367-6.77246-7.31909-3.25977-14.82446-6.58936-23.06323-6.7124a51.0394,51.0394,0,0,1,4.99878-5.64112C204.68262,34.82812,228.832,28,264,28c90.91211,0,99.75781,27.52832,99.99438,112.24219a20.79408,20.79408,0,0,0-11.79321,5.90039l-3.02929,3.0293A4.00049,4.00049,0,0,0,348,152c0,5.90527-4.30957,8-8,8s-8-2.09473-8-8V80C332,67.22656,324.36621,52,288,52Zm6.53247,66.51733-3.01172-3.0166A7.99946,7.99946,0,0,0,283.332,113.563l-14.14282,4.70923C244.02246,119.63379,244,125.80469,244,128c0,1.07031.00049,2.43408.07324,4h-8.14648c.07275-1.56592.07324-2.92969.07324-4,0-2.19531-.02246-8.36621-25.18921-9.72778L196.668,113.563a7.99946,7.99946,0,0,0-8.18872,1.93774l-3.01172,3.0166A66.03854,66.03854,0,0,0,172,120.74561V104c0-16.96387,2.55176-30.35889,7.86621-40.97,8.5376-1.87817,16.25733,1.5603,25.11524,5.50513C213.21973,72.20508,221.73828,76,232,76c12.21,0,18.96875-3.90234,25.50488-7.67578C264.59375,64.23145,271.92285,60,288,60c23.8877,0,36,6.72852,36,20v52h-8.07324c.07275-1.56592.07324-2.92969.07324-4C316,125.918,315.99463,120.25806,294.53247,118.51733Zm-31.18115,8.3003A4.178,4.178,0,0,0,266.30908,128H294.354a3.91188,3.91188,0,0,0,2.78858-1.12671c5.59839.63941,9.3125,1.5249,10.84863,2.2937C307.792,141.91309,304.08008,156,280,156s-27.792-14.08691-27.99121-26.833C253.58984,128.37549,257.4751,127.46045,263.35132,126.81763Zm-80.4939.05566A3.91188,3.91188,0,0,0,185.646,128h28.04492a4.17907,4.17907,0,0,0,2.958-1.18237c5.876.64282,9.76123,1.55786,11.34228,2.34936C227.792,141.91309,224.08008,156,200,156s-27.792-14.08691-27.99121-26.833C173.54492,128.39819,177.259,127.5127,182.85742,126.87329Zm12.7207,159.33765c-3.293-6.585-4.03515-11.72071-2.207-15.26465,2.1062-4.083,8.08374-7.02637,17.77491-8.7627C216.51929,267.30786,220,272.71582,220,280c0,6.949-6.61035,11.36548-18.68555,16.25171C199.24707,292.93652,197.29419,289.6438,195.57812,286.21094ZM228,280c0-15.7666-11.55469-24.501-23.78711-33.74805C189.11328,234.83789,172,221.90137,172,192V153.78491C178.104,160.56323,187.48633,164,200,164c8.26489,0,15.15625-1.50757,20.64941-4.47607A15.96841,15.96841,0,0,0,236,180h4a4,4,0,0,0,0-8h-4a8,8,0,0,1,0-16h4a4,4,0,0,0,0-8h-4a15.91827,15.91827,0,0,0-4.32837.61133A32.77808,32.77808,0,0,0,234.89014,140h10.21972a32.53674,32.53674,0,0,0,3.41748,8.98438C254.2207,158.94824,264.80957,164,280,164s25.7793-5.05176,31.47266-15.01562A32.53674,32.53674,0,0,0,314.89014,140H324v12a15.43916,15.43916,0,0,0,5.09277,11.98926A16.3412,16.3412,0,0,0,340,168c7.502,0,15.09082-4.89258,15.9248-14.26758l1.93262-1.93359A12.971,12.971,0,0,1,380,160.9707v3.54a12.90866,12.90866,0,0,1-8.1543,12.043l-26.55371,10.624a4.00471,4.00471,0,0,0-2.15234,2.05176c-8.16211,17.87012-20.7666,31.14356-31.88672,42.85449C296.62988,247.48535,284,260.78711,284,280c0,8.64307,5.44019,14.40186,13.76562,19.052a59.93656,59.93656,0,0,1-83.53369-.0022C222.68579,294.35107,228,288.635,228,280Zm64,0c0-4.7793,4.92676-10.76,11.92871-17.19775,7.97559,1.79638,12.94385,4.57714,14.76953,8.28076,1.74121,3.53515.97559,8.625-2.27636,15.12793-1.71778,3.43652-3.67286,6.73242-5.74292,10.051C298.855,291.48047,292,286.99756,292,280Zm3.89478,40.64917a75.78454,75.78454,0,0,1-79.78956,0c-3.54809-6.74243-7.09863-12.353-10.42382-17.52954.31347-.1311.62256-.26294.93115-.395a67.96074,67.96074,0,0,0,98.76538.0105q.46362.19812.93408.39453C302.98877,308.30322,299.44043,313.91113,295.89478,320.64917ZM404.76,342.10986c-24.59009-25.25-54.34334-35.94319-80.55-45.05981,5.165-8.48755,16.04-29.8-5.31982-41.64014,17.98486-15.65991,53.77653-37.57658,56.90991-67.51A24.79955,24.79955,0,0,0,392,164.51v-3.54a24.82286,24.82286,0,0,0-16.02-23.32983c-.25-44.21021-3.35986-72.13013-17.54-91.39014C342.82007,25.05005,314.57007,16,264,16c-38.42993,0-65.31006,7.92993-82.16992,24.25C166.93994,54.66992,160,74.92993,160,104v88c0,34.48,19.73,50.74,35.12012,62.41992C175.91667,263.5,177.75,280.83333,187.79,297.05005c-25.29,8.61662-55.96,19.80981-80.55,45.05981C78.14014,372,64,414.49,64,472v24H76V472c0-54.23,13.03-93.98,39.84009-121.51,20.99-21.56006,46.49324-32.15666,82.24-44.40015C213.83333,331.16667,236,365.05005,236,496h8c0-90.28-10.35986-135.51-22.16992-163.27a83.93626,83.93626,0,0,0,68.33984,0C278.35986,360.49,268,405.72,268,496h8c0-130.94995,21.66667-164,37.91992-189.91016,29.99675,10.57683,58.74675,20.16016,82.24,44.40015C422.97,378.02,436,417.77,436,472v24h12V472C448,414.49,433.85986,372,404.76,342.10986Z"/><path d="M156,400v96h-8V400a4,4,0,0,1,8,0Z"/><path d="M364,400v96h-8V400a4,4,0,0,1,8,0Z"/><path d="M185.78906,143.57812a21.52062,21.52062,0,0,1,20.42188,0,4.00046,4.00046,0,0,0,3.57812-7.15624,29.4269,29.4269,0,0,0-27.57812,0,4.00046,4.00046,0,0,0,3.57812,7.15624Z"/><path d="M265.78906,143.57812a21.52062,21.52062,0,0,1,20.42188,0,4.00046,4.00046,0,0,0,3.57812-7.15624,29.4269,29.4269,0,0,0-27.57812,0,4.00046,4.00046,0,1,0,3.57812,7.15624Z"/><path d="M290.44043,204.56934C290.44043,200.61621,287.70605,196,280,196H232c-7.70605,0-10.44043,4.61621-10.44043,8.56934C221.55957,213.78613,236.34863,228,256,228S290.44043,213.78613,290.44043,204.56934Zm-59.11328,3.91406c-1.666-2.29395-1.81738-3.69141-1.76172-4.05469A4.70634,4.70634,0,0,1,232,204h48a4.70634,4.70634,0,0,1,2.43457.42871c.05566.36328-.0957,1.76074-1.76172,4.05469C276.64453,214.03027,267.20605,220,256,220S235.35547,214.03027,231.32715,208.4834Z"/></g></svg>
