<svg enable-background="new 0 0 512.034 512.034" height="512" viewBox="0 0 512.034 512.034" width="512"
  xmlns="http://www.w3.org/2000/svg">
  <g>
    <circle cx="406.034" cy="106.017" r="10" />
    <circle cx="374.034" cy="316.017" r="10" />
    <path
      d="m38.585 301.609 28.26-28.26c10.12-10.121 27.721-6.768 32.567 6.759 17.568 48.923 58.264 86.363 107.875 100.127l-23.365 51.663c-1.4 3.095-1.133 6.688.708 9.542 1.842 2.854 5.006 4.578 8.403 4.578h50v56c0 5.523 4.477 10 10 10s10-4.477 10-10v-56h50c3.396 0 6.561-1.724 8.402-4.578s2.109-6.447.709-9.542l-23.374-51.708c17.673-5.003 34.235-13.165 49.376-24.349 4.442-3.281 5.383-9.542 2.102-13.985s-9.542-5.383-13.985-2.102c-16.168 11.942-34.173 19.923-53.515 23.721-2.998.588-5.561 2.514-6.961 5.229s-1.482 5.92-.225 8.704l21.977 48.61h-89.007l21.984-48.609c1.261-2.788 1.176-6-.23-8.717s-3.979-4.641-6.983-5.222c-48.191-9.315-88.45-43.848-105.064-90.115-1.806-5.039-4.608-9.618-8.204-13.466v-3.87c0-11.028 8.972-20 20-20h20.522c5.383 51.405 51.607 90 102.478 90 43.416 0 83.431-27.415 97.308-66.667 1.841-5.207-.888-10.92-6.095-12.761-5.207-1.84-10.92.888-12.762 6.095-10.926 30.903-43.919 53.333-78.452 53.333-41.483 0-77.004-31.152-82.295-70h62.375c34.693 0 62.92-28.067 62.92-62.92 0-3.294.167-6.655.499-10.042l39.501-13.165v46.126c0 3.466 1.794 6.685 4.743 8.506 2.948 1.822 6.63 1.988 9.729.438l45.528-22.764v37.37c0 18.29-3.285 36.272-9.763 53.449-1.949 5.167.66 10.937 5.828 12.885 5.144 1.941 10.928-.637 12.885-5.828 3.872-10.266 6.725-20.79 8.566-31.485 8.098 9.975 18.547 16.189 30.398 18.019 22.695 3.505 45.522-10.127 54.278-32.412 14.134-35.969-12.031-72.042-42.486-96.151l50.432-22.924c3.45-1.568 5.717-4.953 5.855-8.74.138-3.788-1.878-7.327-5.205-9.142l-54.277-29.605c7.177-7.501 11.118-17.194 11.118-27.396 0-22.177-17.971-40.22-40.06-40.22h-137.57c-5.523 0-10 4.477-10 10 0 29.557 18.412 54.893 44.369 65.141-27.937 23.808-44.369 61.487-44.369 97.939 0 13.852-6.62 26.524-17.314 34.469-10.563-74.372-82.987-126.485-160.945-107.66-45.318 10.954-81.993 47.145-93.432 92.195-9.727 38.241-2.991 76.651 18.968 108.154 3.548 5.09 10.862 5.766 15.275 1.353zm311.922-222.648c4.148-2.075 6.325-6.729 5.259-11.242-1.066-4.514-5.095-7.702-9.732-7.702-24.146 0-44.349-17.206-48.996-40h126.565c12.557 0 20.06 10.281 20.06 20.22 0 3.653-1.025 9.033-5.911 13.918l-8.79 8.79c-2.229 2.229-3.276 5.377-2.827 8.497s2.343 5.845 5.109 7.354l48.413 26.407-47.763 21.71c-3.293 1.497-5.521 4.655-5.826 8.26-.305 3.604 1.36 7.092 4.354 9.122 40.37 27.359 58.757 58.232 49.188 82.587-5.365 13.654-19.073 22.046-32.612 19.96-17.323-2.674-28.885-21.795-30.965-51.171v-29.653c0-3.466-1.794-6.685-4.743-8.506-2.948-1.822-6.63-1.988-9.729-.438l-45.528 22.764v-43.82c0-3.214-1.545-6.233-4.153-8.112-2.607-1.88-5.96-2.39-9.009-1.375l-41.693 13.895c8.509-27.021 26.774-50.184 49.329-61.465zm-259.783 169.696c-1.895-.469-3.824-.801-5.772-.992-3.229-6.722-4.918-14.111-4.918-21.648 0-27.57 22.43-50 50-50 24.146 0 44.348 17.205 48.994 40h-48.994c-19.541 0-35.843 14.089-39.31 32.64zm-66.997-51.629c9.638-37.956 40.548-68.448 78.745-77.68 69.88-16.875 131.021 32.284 137.063 96.186-2.115.317-4.258.484-6.421.484h-33.806c-4.868-33.876-34.072-60-69.274-60-38.598 0-70 31.402-70 70 0 8.584 1.577 17.032 4.6 24.958-4.401 1.978-8.452 4.752-11.93 8.231l-19.348 19.348c-13.426-24.548-16.869-53.064-9.629-81.527z" />
  </g>
</svg>